<svg width="7" height="5" viewBox="0 0 7 5" fill="none" xmlns="http://www.w3.org/2000/svg">
<path d="M2.52627 4.32988C2.4646 4.33 2.40351 4.31795 2.3465 4.29441C2.2895 4.27086 2.23771 4.2363 2.1941 4.19269L0.201101 2.19922C0.156198 2.15591 0.12037 2.10409 0.0957069 2.04679C0.0710441 1.98949 0.0580406 1.92785 0.0574548 1.86546C0.056869 1.80308 0.0687129 1.74121 0.0922953 1.68345C0.115878 1.62569 0.150726 1.57321 0.194808 1.52907C0.23889 1.48493 0.291321 1.45 0.349044 1.42634C0.406766 1.40267 0.468624 1.39074 0.531007 1.39124C0.59339 1.39174 0.655049 1.40465 0.712386 1.42924C0.769724 1.45382 0.821592 1.48957 0.864964 1.53441L2.5258 3.19525L5.51624 0.205747C5.60433 0.117589 5.72384 0.0680372 5.84847 0.0679932C5.9731 0.0679491 6.09265 0.117416 6.18081 0.205512C6.26897 0.293609 6.31852 0.413117 6.31856 0.537748C6.3186 0.662379 6.26914 0.781923 6.18104 0.870081L2.85843 4.19269C2.81482 4.2363 2.76303 4.27086 2.70603 4.29441C2.64903 4.31795 2.58794 4.33 2.52627 4.32988Z" fill="#2FAB73"/>
</svg>
