<svg width="15" height="15" viewBox="0 0 15 15" fill="red" xmlns="http://www.w3.org/2000/svg">
<path d="M11.5058 7.34195H4.5406L6.67243 4.7814C6.77212 4.66147 6.82008 4.50685 6.80576 4.35155C6.79144 4.19626 6.71602 4.05301 6.59609 3.95333C6.47615 3.85365 6.32153 3.80569 6.16624 3.82001C6.01095 3.83432 5.8677 3.90974 5.76802 4.02968L2.83161 7.55337C2.81185 7.5814 2.79419 7.61084 2.77875 7.64146C2.77875 7.67083 2.77875 7.68844 2.73764 7.71781C2.71102 7.78515 2.69709 7.85682 2.69653 7.92923C2.69709 8.00164 2.71102 8.07331 2.73764 8.14065C2.73764 8.17002 2.73764 8.18763 2.77875 8.217C2.79419 8.24762 2.81185 8.27706 2.83161 8.30509L5.76802 11.8288C5.82324 11.8951 5.89238 11.9484 5.97054 11.9849C6.0487 12.0215 6.13395 12.0403 6.22023 12.0402C6.35745 12.0405 6.49043 11.9927 6.59609 11.9051C6.65555 11.8558 6.70471 11.7953 6.74074 11.727C6.77677 11.6586 6.79897 11.5839 6.80606 11.5069C6.81315 11.43 6.805 11.3525 6.78207 11.2787C6.75914 11.2049 6.72188 11.1364 6.67243 11.0771L4.5406 8.51651H11.5058C11.6615 8.51651 11.8109 8.45464 11.921 8.3445C12.0312 8.23436 12.093 8.08499 12.093 7.92923C12.093 7.77347 12.0312 7.6241 11.921 7.51396C11.8109 7.40382 11.6615 7.34195 11.5058 7.34195Z" fill="#F53838"/>
</svg>
