<svg width="8" height="6" viewBox="0 0 8 6" fill="none" xmlns="http://www.w3.org/2000/svg">
<path d="M6.88007 2.09357L5.01619 1.82268L4.18298 0.133511C4.16022 0.0872627 4.12278 0.0498234 4.07653 0.0270662C3.96055 -0.0301938 3.8196 0.0175229 3.7616 0.133511L2.9284 1.82268L1.06451 2.09357C1.01312 2.10091 0.966141 2.12513 0.93017 2.16184C0.886683 2.20653 0.86272 2.26667 0.863546 2.32902C0.864372 2.39138 0.889919 2.45086 0.934575 2.49439L2.28312 3.80916L1.96452 5.66571C1.95705 5.7089 1.96183 5.75331 1.97832 5.79392C1.9948 5.83453 2.02234 5.86971 2.0578 5.89546C2.09326 5.92122 2.13523 5.93652 2.17895 5.93964C2.22267 5.94276 2.26639 5.93357 2.30514 5.9131L3.97229 5.03658L5.63944 5.9131C5.68495 5.93733 5.73781 5.9454 5.78846 5.93659C5.9162 5.91457 6.00209 5.79344 5.98006 5.66571L5.66146 3.80916L7.01001 2.49439C7.04671 2.45841 7.07094 2.41143 7.07828 2.36004C7.0981 2.23158 7.00854 2.11265 6.88007 2.09357Z" fill="#FEA250"/>
</svg>
