<svg width="16" height="15" viewBox="0 0 16 15" fill="none" xmlns="http://www.w3.org/2000/svg">
<path d="M3.87046 7.34195H10.8356L8.70379 4.7814C8.6041 4.66147 8.55614 4.50685 8.57046 4.35155C8.58478 4.19626 8.6602 4.05301 8.78013 3.95333C8.90007 3.85365 9.05469 3.80569 9.20998 3.82001C9.36527 3.83432 9.50852 3.90974 9.6082 4.02968L12.5446 7.55337C12.5644 7.5814 12.582 7.61084 12.5975 7.64146C12.5975 7.67083 12.5975 7.68844 12.6386 7.71781C12.6652 7.78515 12.6791 7.85682 12.6797 7.92923C12.6791 8.00164 12.6652 8.07331 12.6386 8.14065C12.6386 8.17002 12.6386 8.18763 12.5975 8.217C12.582 8.24762 12.5644 8.27706 12.5446 8.30509L9.6082 11.8288C9.55298 11.8951 9.48384 11.9484 9.40568 11.9849C9.32752 12.0215 9.24227 12.0403 9.15599 12.0402C9.01878 12.0405 8.88579 11.9927 8.78013 11.9051C8.72067 11.8558 8.67151 11.7953 8.63548 11.727C8.59945 11.6586 8.57725 11.5839 8.57016 11.5069C8.56307 11.43 8.57122 11.3525 8.59415 11.2787C8.61708 11.2049 8.65434 11.1364 8.70379 11.0771L10.8356 8.51651H3.87046C3.7147 8.51651 3.56532 8.45464 3.45518 8.3445C3.34505 8.23436 3.28317 8.08499 3.28317 7.92923C3.28317 7.77347 3.34505 7.6241 3.45518 7.51396C3.56532 7.40382 3.7147 7.34195 3.87046 7.34195Z" fill="white"/>
</svg>
